# xmcd
#
# Track frame offsets:
# 150
# 18012
# 42806
# 57749
# 89998
# 109596
# 134678
# 149547
# 168650
#
# Disc length: 2464 seconds
#
#
# Revision: 2
# Processed by: cddbd v1.5.1PL0 Copyright (c) Steve Scherf et al.
# Submitted via: FreeRIP 2.942 
#
DISCID=86099e09
DTITLE=Iron Maiden - Iron Maiden
DYEAR=1980
DGENRE=Heavy Metal
TTITLE0=Prowler
TTITLE1=Remember Tomorrow
TTITLE2=Running Free
TTITLE3=Phantom of the Opera
TTITLE4=Transylvania
TTITLE5=Strange World
TTITLE6=Sanctuary
TTITLE7=Charlotte the Harlot
TTITLE8=Iron Maiden
EXTD=
EXTT0=
EXTT1=
EXTT2=
EXTT3=
EXTT4=
EXTT5=
EXTT6=
EXTT7=
EXTT8=
PLAYORDER=
